# xmcd CD database file
#
# Track frame offsets:
#	182
#	17887
#	35937
#	55010
#	70757
#	86687
#	111707
#	128227
#	155217
#	168395
#	180765
#	194320
#	209485
#	242350
#	259770
#	274990
#
# Disc length: 4166 seconds
#
# Revision: 0
# Processed by: cddbd v1.5PL3 Copyright (c) Steve Scherf et al.
# Submitted via: CDex 1.51
#
DISCID=eb104410
DTITLE=Various Artist - Hoodo Man Blues
DYEAR=1996
DGENRE=Blues
TTITLE0=Lacy Gibson and Sunnyland Slim/You Better Be Sure
TTITLE1=Roy Gaines and The Crusaders/Hell Of A Night
TTITLE2=Carey Bell and Willie Williams/You Went Away Baby
TTITLE3=Clarence Edwards/Rocky Mountains
TTITLE4=Big Walter 'Shakey' Horton/That Ain't It
TTITLE5=The Paul DeLay Band/This Ol' Life
TTITLE6=U.P. Wilson with Paul Orta and The  Kingpins/Johnny B. Goode
TTITLE7=Joe Carter Joe's New Stormy Monday
TTITLE8=Sonny Boy Williamson/Bye Bye Bird
TTITLE9=Tommy Tucker/Tell Me Who's Wrong
TTITLE10=John Lee Hooker/Wandering Blues
TTITLE11=Buddy Guy and Junior Wells/Hoodoo Man Blues
TTITLE12=Muddy Waters/Goin' Down Slow
TTITLE13=Byther Smith/You Ought To Be Ashamed
TTITLE14=Jimmy Reed/Down At The Grocery Store
TTITLE15=Pinetop Perkins and Luther 'Guitar Junior' Johnson with The Muddy Waters Band/Take A Little Walk With Me
EXTD=YEAR: 1996
EXTT0=
EXTT1=
EXTT2=
EXTT3=
EXTT4=
EXTT5=
EXTT6=
EXTT7=
EXTT8=
EXTT9=
EXTT10=
EXTT11=
EXTT12=
EXTT13=
EXTT14=
EXTT15=
PLAYORDER=
